<svg xmlns="http://www.w3.org/2000/svg" width="230.64" height="94.861" viewBox="0 0 230.64 94.861">
  <g id="Group_6613" data-name="Group 6613" transform="translate(-1294.57 -400.64)">
    <g id="Group_6574" data-name="Group 6574" transform="translate(1294.57 438.753)">
      <path id="Path_1893" data-name="Path 1893" d="M1321.855,527.94a1.365,1.365,0,0,1,1.545,1.545v1.03a1.365,1.365,0,0,1-1.545,1.545h-16.99a5.648,5.648,0,0,0-3.646,1.2,3.622,3.622,0,0,0-1.5,2.912v6.179a3.624,3.624,0,0,0,1.5,2.916,5.641,5.641,0,0,0,3.646,1.2h16.99a1.365,1.365,0,0,1,1.545,1.545v1.03a1.365,1.365,0,0,1-1.545,1.545h-16.99a11.309,11.309,0,0,1-7.279-2.408,7.237,7.237,0,0,1-3.017-5.828v-6.179a7.237,7.237,0,0,1,3.017-5.828,11.29,11.29,0,0,1,7.279-2.408h16.99Z" transform="translate(-1294.57 -521.761)" fill="#fcfcfc"/>
      <path id="Path_1894" data-name="Path 1894" d="M1397.505,550.6a8.95,8.95,0,0,1-5.828-1.955,5.861,5.861,0,0,1,0-9.471,8.95,8.95,0,0,1,5.828-1.955h15.445v-1.03a3.617,3.617,0,0,0-1.5-2.912,5.638,5.638,0,0,0-3.643-1.2h-16.99a1.365,1.365,0,0,1-1.545-1.545v-1.03a1.365,1.365,0,0,1,1.545-1.545h16.99a11.309,11.309,0,0,1,7.279,2.408,7.237,7.237,0,0,1,3.017,5.828v6.179a7.237,7.237,0,0,1-3.017,5.828,11.29,11.29,0,0,1-7.279,2.408h-10.3Zm10.3-4.116a5.631,5.631,0,0,0,3.643-1.2,3.623,3.623,0,0,0,1.5-2.916v-1.03H1397.5a3.3,3.3,0,0,0-2.182.752,2.289,2.289,0,0,0,0,3.646,3.3,3.3,0,0,0,2.182.752Z" transform="translate(-1356.32 -521.767)" fill="#fcfcfc"/>
      <path id="Path_1895" data-name="Path 1895" d="M1499.405,536.176a3.617,3.617,0,0,0-1.5-2.912,6.119,6.119,0,0,0-7.289,0,3.622,3.622,0,0,0-1.5,2.912v12.87a1.365,1.365,0,0,1-1.545,1.545h-2.06a1.365,1.365,0,0,1-1.545-1.545v-12.87a7.237,7.237,0,0,1,3.017-5.828,12.222,12.222,0,0,1,14.568,0c.15.122.3.247.431.372.136-.125.289-.247.452-.372a12.191,12.191,0,0,1,14.547,0,7.237,7.237,0,0,1,3.017,5.828v12.87a1.365,1.365,0,0,1-1.545,1.545h-2.06a1.365,1.365,0,0,1-1.545-1.545v-12.87a3.617,3.617,0,0,0-1.5-2.912,6.124,6.124,0,0,0-7.293,0,3.622,3.622,0,0,0-1.5,2.912v12.87a1.365,1.365,0,0,1-1.545,1.545h-2.06a1.365,1.365,0,0,1-1.545-1.545v-12.87Z" transform="translate(-1418.064 -521.761)" fill="#fcfcfc"/>
      <path id="Path_1896" data-name="Path 1896" d="M1628.206,542.355a7.237,7.237,0,0,1-3.017,5.828,11.29,11.29,0,0,1-7.279,2.408h-8.236a11.309,11.309,0,0,1-7.279-2.408,7.237,7.237,0,0,1-3.017-5.828v-6.179a7.237,7.237,0,0,1,3.017-5.828,11.289,11.289,0,0,1,7.279-2.408h8.236a11.31,11.31,0,0,1,7.279,2.408,7.237,7.237,0,0,1,3.017,5.828Zm-23.681,0a3.623,3.623,0,0,0,1.5,2.916,5.64,5.64,0,0,0,3.646,1.2h8.236a5.647,5.647,0,0,0,3.646-1.2,3.623,3.623,0,0,0,1.5-2.916v-6.179a3.617,3.617,0,0,0-1.5-2.912,5.641,5.641,0,0,0-3.646-1.2h-8.236a5.647,5.647,0,0,0-3.646,1.2,3.622,3.622,0,0,0-1.5,2.912Z" transform="translate(-1493.326 -521.761)" fill="#fcfcfc"/>
      <path id="Path_1897" data-name="Path 1897" d="M1694.07,536.176a7.237,7.237,0,0,1,3.017-5.828,11.3,11.3,0,0,1,7.279-2.408H1709a1.365,1.365,0,0,1,1.545,1.545v1.03A1.365,1.365,0,0,1,1709,532.06h-4.634a5.632,5.632,0,0,0-3.643,1.2,3.622,3.622,0,0,0-1.5,2.912v12.87a1.365,1.365,0,0,1-1.545,1.545h-2.06a1.365,1.365,0,0,1-1.545-1.545v-12.87Z" transform="translate(-1555.069 -521.761)" fill="#fcfcfc"/>
      <path id="Path_1898" data-name="Path 1898" d="M1758.41,512.755a1.365,1.365,0,0,1-1.545,1.545h-2.06a1.365,1.365,0,0,1-1.545-1.545v-1.03a1.365,1.365,0,0,1,1.545-1.545h2.06a1.365,1.365,0,0,1,1.545,1.545Zm0,24.714a1.365,1.365,0,0,1-1.545,1.545h-2.06a1.365,1.365,0,0,1-1.545-1.545V517.9a1.365,1.365,0,0,1,1.545-1.545h2.06a1.365,1.365,0,0,1,1.545,1.545Z" transform="translate(-1593.665 -510.18)" fill="#fcfcfc"/>
      <path id="Path_1899" data-name="Path 1899" d="M1785.039,549.056a1.365,1.365,0,0,1-1.545,1.545h-2.06a1.365,1.365,0,0,1-1.545-1.545v-12.87a7.237,7.237,0,0,1,3.017-5.828,11.29,11.29,0,0,1,7.279-2.408h8.236a11.309,11.309,0,0,1,7.279,2.408,7.237,7.237,0,0,1,3.017,5.828v12.87a1.365,1.365,0,0,1-1.545,1.545h-2.06a1.365,1.365,0,0,1-1.545-1.545v-12.87a3.617,3.617,0,0,0-1.5-2.912,5.641,5.641,0,0,0-3.646-1.2h-8.236a5.647,5.647,0,0,0-3.646,1.2,3.622,3.622,0,0,0-1.5,2.912v12.87Z" transform="translate(-1611.03 -521.767)" fill="#fcfcfc"/>
      <path id="Path_1900" data-name="Path 1900" d="M1882.819,527.94h19.049a1.365,1.365,0,0,1,1.545,1.545v1.03a1.365,1.365,0,0,1-1.545,1.545h-19.049a3.3,3.3,0,0,0-2.182.752,2.29,2.29,0,0,0,0,3.646,3.305,3.305,0,0,0,2.182.751h12.355a8.949,8.949,0,0,1,5.828,1.955,5.861,5.861,0,0,1,0,9.471,8.95,8.95,0,0,1-5.828,1.955h-19.05a1.365,1.365,0,0,1-1.545-1.545v-1.03a1.365,1.365,0,0,1,1.545-1.545h19.05a3.3,3.3,0,0,0,2.182-.752,2.284,2.284,0,0,0,0-3.646,3.311,3.311,0,0,0-2.182-.752h-12.355a8.949,8.949,0,0,1-5.828-1.955,5.86,5.86,0,0,1,0-9.471A8.949,8.949,0,0,1,1882.819,527.94Z" transform="translate(-1672.774 -521.761)" fill="#fcfcfc"/>
    </g>
    <g id="Group_6578" data-name="Group 6578" transform="translate(1326.97 400.64)">
      <g id="Group_6576" data-name="Group 6576" transform="translate(0 82.405)">
        <g id="Group_6575" data-name="Group 6575">
          <path id="Path_1901" data-name="Path 1901" d="M1387.69,638.2a.709.709,0,0,1,.209-.515.734.734,0,0,1,.543-.209.713.713,0,0,1,.536.209.724.724,0,0,1-.536,1.239.735.735,0,0,1-.543-.209A.71.71,0,0,1,1387.69,638.2Zm1.329,8.771c-.049.017-.122.042-.216.066a1.3,1.3,0,0,1-.32.038c-.414,0-.623-.174-.623-.522v-6.211a2.02,2.02,0,0,1,.226-.066,1.39,1.39,0,0,1,.327-.035c.4,0,.609.177.609.536v6.193Z" transform="translate(-1387.69 -637.48)" fill="#fcfcfc"/>
          <path id="Path_1902" data-name="Path 1902" d="M1409.786,646.39a1.658,1.658,0,0,0-1.085-.334,2.454,2.454,0,0,0-1.681.664,2.125,2.125,0,0,1,.087.623v4.6a2.158,2.158,0,0,1-.223.066,1.324,1.324,0,0,1-.31.038c-.414,0-.623-.174-.623-.522v-4.1a1.26,1.26,0,0,0-.407-1.04,1.679,1.679,0,0,0-1.1-.334,2.6,2.6,0,0,0-.877.146,3.388,3.388,0,0,0-.7.334v5.414c-.049.017-.122.042-.216.066a1.29,1.29,0,0,1-.317.038c-.414,0-.623-.174-.623-.522V646.6a.906.906,0,0,1,.122-.484,1.33,1.33,0,0,1,.428-.4,4.459,4.459,0,0,1,2.2-.609,3.541,3.541,0,0,1,1.26.209,1.918,1.918,0,0,1,.839.571,3.128,3.128,0,0,1,.943-.557,3.455,3.455,0,0,1,1.287-.223,2.9,2.9,0,0,1,1.868.557,2.07,2.07,0,0,1,.7,1.715v4.575a2.005,2.005,0,0,1-.226.066,1.321,1.321,0,0,1-.31.038c-.414,0-.623-.174-.623-.522v-4.1A1.281,1.281,0,0,0,1409.786,646.39Z" transform="translate(-1396.832 -642.455)" fill="#fcfcfc"/>
          <path id="Path_1903" data-name="Path 1903" d="M1440.872,645.09a3.211,3.211,0,0,1,2,.564,2.094,2.094,0,0,1,.738,1.781v3.431a.813.813,0,0,1-.122.484,1.2,1.2,0,0,1-.369.31,3.781,3.781,0,0,1-.918.355,5.117,5.117,0,0,1-1.308.153,3.552,3.552,0,0,1-2.105-.536,1.788,1.788,0,0,1-.745-1.548,1.718,1.718,0,0,1,.623-1.44,3.392,3.392,0,0,1,1.75-.6l2.056-.2v-.407a1.255,1.255,0,0,0-.435-1.058,1.877,1.877,0,0,0-1.173-.334,3.72,3.72,0,0,0-1.145.174,6.5,6.5,0,0,0-.957.39,1.458,1.458,0,0,1-.209-.23.486.486,0,0,1-.094-.289.538.538,0,0,1,.1-.334.954.954,0,0,1,.32-.247,3.451,3.451,0,0,1,.9-.31A5.38,5.38,0,0,1,1440.872,645.09Zm.014,6.124a3.523,3.523,0,0,0,1.005-.122,2.273,2.273,0,0,0,.571-.24v-2.1l-1.8.188a2.226,2.226,0,0,0-1.113.341.922.922,0,0,0-.362.79.967.967,0,0,0,.421.846A2.241,2.241,0,0,0,1440.886,651.214Z" transform="translate(-1420.521 -642.442)" fill="#fcfcfc"/>
          <path id="Path_1904" data-name="Path 1904" d="M1467.639,651.276a2.154,2.154,0,0,1-.671.348,3.17,3.17,0,0,1-1.02.146,3.871,3.871,0,0,1-1.2-.181,2.634,2.634,0,0,1-.992-.578,2.805,2.805,0,0,1-.682-1.033,4.167,4.167,0,0,1-.254-1.548,3.928,3.928,0,0,1,.247-1.447,2.788,2.788,0,0,1,1.74-1.674,4.139,4.139,0,0,1,1.346-.209,4.257,4.257,0,0,1,1.225.167,3.466,3.466,0,0,1,.933.414,1.467,1.467,0,0,1,.355.327.721.721,0,0,1,.139.442v5.818a2.818,2.818,0,0,1-.24,1.225,2.143,2.143,0,0,1-.665.811,2.862,2.862,0,0,1-1.006.456,5.074,5.074,0,0,1-1.245.146,4.481,4.481,0,0,1-1.253-.153,3.265,3.265,0,0,1-.7-.268.72.72,0,0,1-.435-.623.594.594,0,0,1,.094-.341.632.632,0,0,1,.24-.209,3.281,3.281,0,0,0,.853.428,3.517,3.517,0,0,0,1.2.195,2.314,2.314,0,0,0,1.482-.414,1.605,1.605,0,0,0,.515-1.326v-.919Zm-1.562-.463a2.151,2.151,0,0,0,.95-.181,2.5,2.5,0,0,0,.616-.414v-3.761a2.678,2.678,0,0,0-.616-.282,2.75,2.75,0,0,0-.877-.122,2.1,2.1,0,0,0-1.569.595,2.421,2.421,0,0,0-.588,1.764,3.317,3.317,0,0,0,.16,1.106,1.963,1.963,0,0,0,.442.745,1.7,1.7,0,0,0,.665.421A2.517,2.517,0,0,0,1466.077,650.813Z" transform="translate(-1436.68 -642.449)" fill="#fcfcfc"/>
          <path id="Path_1905" data-name="Path 1905" d="M1489.57,638.2a.709.709,0,0,1,.209-.515.734.734,0,0,1,.543-.209.7.7,0,0,1,.738.724.726.726,0,0,1-.2.515.713.713,0,0,1-.536.209.735.735,0,0,1-.543-.209A.709.709,0,0,1,1489.57,638.2Zm1.333,8.771c-.049.017-.122.042-.216.066a1.3,1.3,0,0,1-.32.038c-.414,0-.623-.174-.623-.522v-6.211a2.016,2.016,0,0,1,.226-.066,1.391,1.391,0,0,1,.327-.035c.4,0,.609.177.609.536v6.193Z" transform="translate(-1454.122 -637.48)" fill="#fcfcfc"/>
          <path id="Path_1906" data-name="Path 1906" d="M1507.759,646.419a1.859,1.859,0,0,0-1.225-.376,3.31,3.31,0,0,0-1.026.146,3.891,3.891,0,0,0-.769.334v5.414c-.049.017-.122.042-.216.066a1.3,1.3,0,0,1-.32.038c-.414,0-.623-.174-.623-.522v-4.937a.954.954,0,0,1,.122-.5,1.274,1.274,0,0,1,.428-.383,4.364,4.364,0,0,1,1-.421,4.857,4.857,0,0,1,1.406-.188,3.291,3.291,0,0,1,2.077.595,2.222,2.222,0,0,1,.759,1.868v4.387a2.164,2.164,0,0,1-.223.066,1.325,1.325,0,0,1-.31.038c-.414,0-.623-.174-.623-.522v-3.907A1.469,1.469,0,0,0,1507.759,646.419Z" transform="translate(-1463.258 -642.442)" fill="#fcfcfc"/>
          <path id="Path_1907" data-name="Path 1907" d="M1534,651.276a2.157,2.157,0,0,1-.672.348,3.169,3.169,0,0,1-1.019.146,3.871,3.871,0,0,1-1.2-.181,2.632,2.632,0,0,1-.991-.578,2.805,2.805,0,0,1-.682-1.033,4.17,4.17,0,0,1-.254-1.548,3.928,3.928,0,0,1,.247-1.447,2.789,2.789,0,0,1,1.74-1.674,4.139,4.139,0,0,1,1.347-.209,4.258,4.258,0,0,1,1.225.167,3.469,3.469,0,0,1,.932.414,1.406,1.406,0,0,1,.355.327.718.718,0,0,1,.136.442v5.818a2.816,2.816,0,0,1-.24,1.225,2.141,2.141,0,0,1-.665.811,2.866,2.866,0,0,1-1.005.456,5.078,5.078,0,0,1-1.246.146,4.463,4.463,0,0,1-1.253-.153,3.346,3.346,0,0,1-.7-.268.72.72,0,0,1-.435-.623.6.6,0,0,1,.094-.341.631.631,0,0,1,.24-.209,3.254,3.254,0,0,0,.856.428,3.518,3.518,0,0,0,1.2.195,2.314,2.314,0,0,0,1.482-.414,1.605,1.605,0,0,0,.515-1.326v-.919Zm-1.566-.463a2.124,2.124,0,0,0,.946-.181,2.44,2.44,0,0,0,.616-.414v-3.761a2.682,2.682,0,0,0-.616-.282,2.751,2.751,0,0,0-.877-.122,2.1,2.1,0,0,0-1.569.595,2.42,2.42,0,0,0-.585,1.764,3.317,3.317,0,0,0,.16,1.106,1.963,1.963,0,0,0,.442.745,1.7,1.7,0,0,0,.665.421A2.532,2.532,0,0,0,1532.433,650.813Z" transform="translate(-1479.951 -642.449)" fill="#fcfcfc"/>
          <path id="Path_1908" data-name="Path 1908" d="M1568.375,650.57c-.125-.23-.271-.525-.435-.884s-.334-.758-.515-1.2-.358-.915-.543-1.413-.358-1-.522-1.514a.73.73,0,0,1,.268-.233.744.744,0,0,1,.355-.087.57.57,0,0,1,.4.132,1.1,1.1,0,0,1,.268.435c.289.821.591,1.625.9,2.418s.668,1.621,1.065,2.488h.059a11.187,11.187,0,0,0,.477-1.092c.164-.428.327-.884.484-1.367s.31-.971.449-1.468.261-.971.369-1.427c.066-.028.139-.056.216-.08a.928.928,0,0,1,.275-.035.666.666,0,0,1,.407.122.444.444,0,0,1,.16.369,4.986,4.986,0,0,1-.2,1.058c-.136.511-.31,1.086-.529,1.722s-.466,1.291-.745,1.962a17.675,17.675,0,0,1-.853,1.788,12.6,12.6,0,0,1-1.225,1.889,1.445,1.445,0,0,1-1.006.658.693.693,0,0,1-.738-.581q.23-.2.522-.522c.191-.212.386-.442.577-.685s.376-.5.55-.762a6.174,6.174,0,0,0,.435-.752,1.213,1.213,0,0,1-.456-.254A2.3,2.3,0,0,1,1568.375,650.57Z" transform="translate(-1504.194 -642.54)" fill="#fcfcfc"/>
          <path id="Path_1909" data-name="Path 1909" d="M1597.456,648.622a4.291,4.291,0,0,1-.233,1.461,3.191,3.191,0,0,1-.658,1.113,2.829,2.829,0,0,1-1.033.71,3.87,3.87,0,0,1-2.721,0,2.929,2.929,0,0,1-1.044-.71,3.163,3.163,0,0,1-.665-1.113,4.376,4.376,0,0,1-.233-1.461,4.208,4.208,0,0,1,.24-1.461,3.22,3.22,0,0,1,.672-1.113,2.87,2.87,0,0,1,1.044-.71,3.793,3.793,0,0,1,2.693,0,2.772,2.772,0,0,1,1.033.71,3.271,3.271,0,0,1,.665,1.113A4.205,4.205,0,0,1,1597.456,648.622Zm-3.288-2.578a1.9,1.9,0,0,0-1.548.682,3.5,3.5,0,0,0-.007,3.8,1.908,1.908,0,0,0,1.555.672,1.873,1.873,0,0,0,1.548-.682,3.526,3.526,0,0,0-.007-3.792A1.89,1.89,0,0,0,1594.168,646.043Z" transform="translate(-1520.176 -642.442)" fill="#fcfcfc"/>
          <path id="Path_1910" data-name="Path 1910" d="M1618.66,645.521a1.977,1.977,0,0,1,.226-.066,1.384,1.384,0,0,1,.327-.035c.4,0,.609.177.609.536v3.719a1.623,1.623,0,0,0,.494,1.339,2.112,2.112,0,0,0,1.361.4,3.505,3.505,0,0,0,.985-.122,3.082,3.082,0,0,0,.637-.254v-5.515a2.148,2.148,0,0,1,.223-.066,1.321,1.321,0,0,1,.31-.035c.414,0,.623.177.623.536v5.038a1.23,1.23,0,0,1-.08.484.852.852,0,0,1-.383.355,4.533,4.533,0,0,1-.918.362,5.039,5.039,0,0,1-1.413.174,3.41,3.41,0,0,1-2.22-.637,2.441,2.441,0,0,1-.776-2v-4.214Z" transform="translate(-1538.297 -642.657)" fill="#fcfcfc"/>
          <path id="Path_1911" data-name="Path 1911" d="M1646.4,651.944c-.049.017-.122.042-.216.066a1.306,1.306,0,0,1-.32.038c-.414,0-.623-.174-.623-.522v-4.906a1.008,1.008,0,0,1,.122-.529,1.317,1.317,0,0,1,.414-.383,3.785,3.785,0,0,1,1.019-.428,5.333,5.333,0,0,1,1.454-.181c.772,0,1.159.191,1.159.578a.831.831,0,0,1-.042.268.6.6,0,0,1-.115.209c-.1-.021-.223-.038-.376-.059a3.442,3.442,0,0,0-.463-.028,4.544,4.544,0,0,0-1.173.136,3.641,3.641,0,0,0-.839.327v5.414Z" transform="translate(-1555.629 -642.449)" fill="#fcfcfc"/>
          <path id="Path_1912" data-name="Path 1912" d="M1679.252,646.067a2.443,2.443,0,0,0-.912.167,1.992,1.992,0,0,0-.724.491,2.3,2.3,0,0,0-.477.811,3.292,3.292,0,0,0-.174,1.106,2.668,2.668,0,0,0,.623,1.9,2.183,2.183,0,0,0,1.663.658,2.679,2.679,0,0,0,1.012-.167,4.045,4.045,0,0,0,.724-.383.944.944,0,0,1,.261.216.518.518,0,0,1,.1.32.538.538,0,0,1-.16.376,1.372,1.372,0,0,1-.442.3,3.05,3.05,0,0,1-.665.209,4.162,4.162,0,0,1-.831.08,4.333,4.333,0,0,1-1.388-.216,2.892,2.892,0,0,1-1.823-1.743,4.21,4.21,0,0,1-.261-1.555,3.961,3.961,0,0,1,.275-1.541,3.284,3.284,0,0,1,.738-1.106,2.984,2.984,0,0,1,1.093-.672,3.965,3.965,0,0,1,1.339-.223,4.142,4.142,0,0,1,.832.08,2.551,2.551,0,0,1,.657.223,1.374,1.374,0,0,1,.428.327.577.577,0,0,1,.153.369.487.487,0,0,1-.1.3.66.66,0,0,1-.261.2,3.811,3.811,0,0,0-.7-.376A2.533,2.533,0,0,0,1679.252,646.067Z" transform="translate(-1575.543 -642.449)" fill="#fcfcfc"/>
          <path id="Path_1913" data-name="Path 1913" d="M1705.453,648.622a4.291,4.291,0,0,1-.233,1.461,3.191,3.191,0,0,1-.658,1.113,2.831,2.831,0,0,1-1.033.71,3.87,3.87,0,0,1-2.721,0,2.888,2.888,0,0,1-1.04-.71,3.167,3.167,0,0,1-.665-1.113,4.364,4.364,0,0,1-.233-1.461,4.205,4.205,0,0,1,.24-1.461,3.217,3.217,0,0,1,.672-1.113,2.869,2.869,0,0,1,1.044-.71,3.793,3.793,0,0,1,2.693,0,2.772,2.772,0,0,1,1.033.71,3.271,3.271,0,0,1,.664,1.113A4.285,4.285,0,0,1,1705.453,648.622Zm-3.285-2.578a1.9,1.9,0,0,0-1.548.682,3.5,3.5,0,0,0-.007,3.8,1.908,1.908,0,0,0,1.555.672,1.872,1.872,0,0,0,1.548-.682,2.944,2.944,0,0,0,.55-1.9,2.905,2.905,0,0,0-.557-1.9A1.9,1.9,0,0,0,1702.168,646.043Z" transform="translate(-1590.599 -642.442)" fill="#fcfcfc"/>
          <path id="Path_1914" data-name="Path 1914" d="M1730.835,646.419a1.862,1.862,0,0,0-1.221-.376,3.332,3.332,0,0,0-1.03.146,3.86,3.86,0,0,0-.766.334v5.414c-.049.017-.122.042-.216.066a1.3,1.3,0,0,1-.32.038c-.414,0-.623-.174-.623-.522v-4.937a.954.954,0,0,1,.122-.5,1.272,1.272,0,0,1,.428-.383,4.367,4.367,0,0,1,1-.421,4.858,4.858,0,0,1,1.406-.188,3.291,3.291,0,0,1,2.077.595,2.222,2.222,0,0,1,.759,1.868v4.387a2.04,2.04,0,0,1-.226.066,1.325,1.325,0,0,1-.31.038c-.414,0-.623-.174-.623-.522v-3.907A1.469,1.469,0,0,0,1730.835,646.419Z" transform="translate(-1608.72 -642.442)" fill="#fcfcfc"/>
          <path id="Path_1915" data-name="Path 1915" d="M1755.633,646.067a2.442,2.442,0,0,0-.912.167,1.993,1.993,0,0,0-.724.491,2.294,2.294,0,0,0-.477.811,3.3,3.3,0,0,0-.174,1.106,2.668,2.668,0,0,0,.623,1.9,2.183,2.183,0,0,0,1.663.658,2.654,2.654,0,0,0,1.012-.167,4.042,4.042,0,0,0,.724-.383.941.941,0,0,1,.261.216.517.517,0,0,1,.1.32.537.537,0,0,1-.16.376,1.408,1.408,0,0,1-.442.3,3.048,3.048,0,0,1-.664.209,4.142,4.142,0,0,1-.832.08,4.332,4.332,0,0,1-1.388-.216,3.036,3.036,0,0,1-1.1-.651,2.958,2.958,0,0,1-.724-1.093,4.208,4.208,0,0,1-.261-1.555,3.961,3.961,0,0,1,.275-1.541,3.28,3.28,0,0,1,.738-1.106,2.986,2.986,0,0,1,1.093-.672,3.967,3.967,0,0,1,1.34-.223,4.138,4.138,0,0,1,.832.08,2.551,2.551,0,0,1,.658.223,1.388,1.388,0,0,1,.428.327.578.578,0,0,1,.153.369.488.488,0,0,1-.1.3.66.66,0,0,1-.261.2,3.8,3.8,0,0,0-.7-.376A2.52,2.52,0,0,0,1755.633,646.067Z" transform="translate(-1625.348 -642.449)" fill="#fcfcfc"/>
          <path id="Path_1916" data-name="Path 1916" d="M1776.457,649.294a2.243,2.243,0,0,0,2.491,1.9,2.838,2.838,0,0,0,1.1-.2,3.231,3.231,0,0,0,.783-.435.616.616,0,0,1,.348.55.554.554,0,0,1-.181.39,1.682,1.682,0,0,1-.491.334,3.214,3.214,0,0,1-.724.23,4.233,4.233,0,0,1-.891.087,3.727,3.727,0,0,1-2.655-.912,3.471,3.471,0,0,1-.978-2.662,4.179,4.179,0,0,1,.24-1.468,3.218,3.218,0,0,1,.665-1.092,2.873,2.873,0,0,1,1.02-.689,3.4,3.4,0,0,1,1.287-.24,3.271,3.271,0,0,1,1.2.216,2.731,2.731,0,0,1,.946.616,2.858,2.858,0,0,1,.623.939,3.086,3.086,0,0,1,.223,1.193.6.6,0,0,1-.146.456.7.7,0,0,1-.4.167Zm2-3.271a1.921,1.921,0,0,0-1.461.616,2.573,2.573,0,0,0-.609,1.757l3.98-.55a2.132,2.132,0,0,0-.557-1.312A1.791,1.791,0,0,0,1778.454,646.023Z" transform="translate(-1640.41 -642.436)" fill="#fcfcfc"/>
          <path id="Path_1917" data-name="Path 1917" d="M1804.473,652.16a3.856,3.856,0,0,1-.957-.115,3.235,3.235,0,0,1-.738-.275v2.808a1.688,1.688,0,0,1-.216.066,1.312,1.312,0,0,1-.32.035c-.414,0-.623-.177-.623-.536V646.5a.931.931,0,0,1,.1-.463,1.165,1.165,0,0,1,.421-.362,5.249,5.249,0,0,1,.932-.4,3.883,3.883,0,0,1,1.239-.181,4.332,4.332,0,0,1,1.339.2,2.814,2.814,0,0,1,1.086.63,3.032,3.032,0,0,1,.724,1.093,4.289,4.289,0,0,1,.268,1.594,4.59,4.59,0,0,1-.24,1.562,3.007,3.007,0,0,1-.672,1.107,2.723,2.723,0,0,1-1.033.658A3.914,3.914,0,0,1,1804.473,652.16Zm-.16-.957a2.2,2.2,0,0,0,1.628-.616,2.706,2.706,0,0,0,.616-1.976,3.459,3.459,0,0,0-.181-1.2,2.154,2.154,0,0,0-.491-.8,1.816,1.816,0,0,0-.717-.435,2.762,2.762,0,0,0-.852-.129,2.616,2.616,0,0,0-.884.129,4.71,4.71,0,0,0-.651.289v4.269a2.436,2.436,0,0,0,.651.334A2.576,2.576,0,0,0,1804.313,651.2Z" transform="translate(-1657.599 -642.449)" fill="#fcfcfc"/>
          <path id="Path_1918" data-name="Path 1918" d="M1830.352,648.671a2.77,2.77,0,0,1-1.642-.449,1.7,1.7,0,0,1-.63-1.493v-6.875a1.465,1.465,0,0,1,.226-.066,1.379,1.379,0,0,1,.327-.038c.4,0,.609.174.609.522v1.667h2.373a1.167,1.167,0,0,1,.087.195.832.832,0,0,1,.042.268c0,.327-.146.494-.435.494h-2.07v3.761a.943.943,0,0,0,.327.818,1.52,1.52,0,0,0,.919.24,1.97,1.97,0,0,0,.55-.087,2.451,2.451,0,0,0,.508-.2,1.051,1.051,0,0,1,.16.216.609.609,0,0,1,.073.3.6.6,0,0,1-.376.522A2.236,2.236,0,0,1,1830.352,648.671Z" transform="translate(-1674.852 -638.96)" fill="#fcfcfc"/>
          <path id="Path_1919" data-name="Path 1919" d="M1851.432,650.171a1.714,1.714,0,0,1-.682,1.447,3.186,3.186,0,0,1-1.969.522,5.111,5.111,0,0,1-1.012-.094,3.589,3.589,0,0,1-.79-.247,1.609,1.609,0,0,1-.508-.348.575.575,0,0,1-.181-.4.656.656,0,0,1,.094-.334.79.79,0,0,1,.282-.275,4.626,4.626,0,0,0,.911.515,2.971,2.971,0,0,0,1.187.223c1,0,1.506-.338,1.506-1.013q0-.825-1-1.072l-1.2-.317a2.582,2.582,0,0,1-1.287-.675,1.625,1.625,0,0,1-.4-1.138,1.805,1.805,0,0,1,.153-.724,1.61,1.61,0,0,1,.47-.609,2.459,2.459,0,0,1,.79-.414,3.619,3.619,0,0,1,1.106-.153,3.871,3.871,0,0,1,1.635.3c.414.2.623.428.623.689a.6.6,0,0,1-.094.334.55.55,0,0,1-.254.216,4.879,4.879,0,0,0-.738-.376,2.863,2.863,0,0,0-1.127-.2,1.869,1.869,0,0,0-1.033.247.777.777,0,0,0-.383.7.8.8,0,0,0,.216.564,1.406,1.406,0,0,0,.724.348l1,.247a3.154,3.154,0,0,1,1.475.731A1.77,1.77,0,0,1,1851.432,650.171Z" transform="translate(-1686.726 -642.429)" fill="#fcfcfc"/>
        </g>
      </g>
      <g id="Group_6577" data-name="Group 6577" transform="translate(70.377)">
        <path id="Path_1920" data-name="Path 1920" d="M1589.96,410.052a8.264,8.264,0,0,1,3.448-6.659,12.911,12.911,0,0,1,8.319-2.752h5.3a1.559,1.559,0,0,1,1.764,1.764v2.335a1.559,1.559,0,0,1-1.764,1.764h-5.3a6.445,6.445,0,0,0-4.165,1.378,4.143,4.143,0,0,0-1.719,3.33v13.552a1.559,1.559,0,0,1-1.764,1.764h-2.352a1.559,1.559,0,0,1-1.764-1.764V410.052Z" transform="translate(-1589.96 -400.64)" fill="#fcfcfc"/>
        <circle id="Ellipse_18" data-name="Ellipse 18" cx="6.085" cy="6.085" r="6.085" transform="translate(12.748 10.703)" fill="#fcfcfc"/>
      </g>
    </g>
  </g>
</svg>
