<svg xmlns="http://www.w3.org/2000/svg" xmlns:xlink="http://www.w3.org/1999/xlink" width="100" height="100" viewBox="0 0 100 100">
  <defs>
    <clipPath id="clip-CCTV">
      <rect width="100" height="100"/>
    </clipPath>
  </defs>
  <g id="CCTV" clip-path="url(#clip-CCTV)">
    <path id="Path_1856" data-name="Path 1856" d="M90.3,34.528a4.764,4.764,0,0,0-2.442-6.28h-.007L25.434.77A9.738,9.738,0,0,0,12.806,5.743L2.256,30.346A9.555,9.555,0,0,0,7.279,42.873L36.1,55.228l-5.922,14.8H9.545V55.7H0v38.19H9.545V79.574H30.181a9.486,9.486,0,0,0,8.861-6.008l5.832-14.579L69.721,69.635a4.775,4.775,0,0,0,6.255-2.47l1.489-3.387,8.12,3.244,9.548-23.866L87.8,40.227ZM69.13,59,11.041,34.105l10.54-24.6L79.638,35.068,69.13,59" transform="translate(2.5 3.5)" stroke="#fff" stroke-width="4"/>
  </g>
</svg>
