<svg xmlns="http://www.w3.org/2000/svg" xmlns:xlink="http://www.w3.org/1999/xlink" width="100" height="100" viewBox="0 0 100 100">
  <defs>
    <clipPath id="clip-Centralized_AC">
      <rect width="100" height="100"/>
    </clipPath>
  </defs>
  <g id="Centralized_AC" data-name="Centralized AC" clip-path="url(#clip-Centralized_AC)">
    <g id="Group_6631" data-name="Group 6631" transform="translate(-1.281 -1.283)">
      <path id="Path_1863" data-name="Path 1863" d="M48.037,96.077a4.726,4.726,0,0,1-4.8-4.8V76.143L30.985,88.27a4.942,4.942,0,0,1-6.727-.119,4.939,4.939,0,0,1,0-6.727L43.234,62.452V52.843H33.625L14.649,71.819a4.706,4.706,0,0,1-3.3,1.383,4.491,4.491,0,0,1-3.423-1.383,4.939,4.939,0,0,1,0-6.727l12.008-12.25H4.8A4.631,4.631,0,0,1,1.383,51.46a4.926,4.926,0,0,1,0-6.845A4.642,4.642,0,0,1,4.8,43.234H19.935L7.8,30.985a4.933,4.933,0,0,1,.122-6.723,4.542,4.542,0,0,1,3.361-1.322,4.542,4.542,0,0,1,3.361,1.322L33.625,43.234h9.609V33.629L24.258,14.653a4.7,4.7,0,0,1-1.38-3.3,4.467,4.467,0,0,1,1.38-3.423A4.559,4.559,0,0,1,27.62,6.608a4.567,4.567,0,0,1,3.365,1.319l12.25,12.012V4.806A4.653,4.653,0,0,1,44.618,1.38a4.935,4.935,0,0,1,6.845,0A4.661,4.661,0,0,1,52.84,4.806V19.938L65.089,7.807a4.932,4.932,0,0,1,6.727.119,4.57,4.57,0,0,1,1.322,3.365,4.561,4.561,0,0,1-1.322,3.361L52.84,33.629v9.605h9.609L81.425,24.262a4.684,4.684,0,0,1,3.3-1.383,4.463,4.463,0,0,1,3.419,1.383,4.542,4.542,0,0,1,1.322,3.361,4.542,4.542,0,0,1-1.322,3.361L76.139,43.234H91.271a4.8,4.8,0,1,1,0,9.609H76.139L88.27,65.093a4.937,4.937,0,0,1-.122,6.727,4.944,4.944,0,0,1-6.723,0L62.448,52.843H52.84v9.609L71.816,81.425A4.729,4.729,0,0,1,73.2,84.732a4.468,4.468,0,0,1-1.383,3.419,4.939,4.939,0,0,1-6.727,0L52.84,76.143V91.275a4.714,4.714,0,0,1-4.8,4.8" transform="translate(3.423 3.424)" stroke="#fff" stroke-width="2"/>
    </g>
  </g>
</svg>
