<svg xmlns="http://www.w3.org/2000/svg" xmlns:xlink="http://www.w3.org/1999/xlink" width="100" height="100" viewBox="0 0 100 100">
  <defs>
    <clipPath id="clip-Changing_Room">
      <rect width="100" height="100"/>
    </clipPath>
  </defs>
  <g id="Changing_Room" data-name="Changing Room" clip-path="url(#clip-Changing_Room)">
    <g id="Group_6628" data-name="Group 6628">
      <path id="Path_1852" data-name="Path 1852" d="M12.192,0A9.524,9.524,0,1,1,2.666,9.526,9.526,9.526,0,0,1,12.192,0" transform="translate(13.095 2.582)" fill="none" stroke="#000" stroke-width="4"/>
      <path id="Path_1853" data-name="Path 1853" d="M33.335,6.667H4.761A4.762,4.762,0,0,0,0,11.428V44.767H9.522V78.1H28.574V44.767H38.1V11.428a4.762,4.762,0,0,0-4.761-4.761" transform="translate(6.239 19.728)" fill="none" stroke="#000" stroke-width="4"/>
      <path id="Path_1854" data-name="Path 1854" d="M27.057,0a9.722,9.722,0,1,1-9.724,9.724A9.723,9.723,0,0,1,27.057,0" transform="translate(47.007 2.582)" fill="none" stroke="#000" stroke-width="4"/>
      <g id="Path_1855" data-name="Path 1855" transform="translate(36.423 20.22)" fill="none">
        <path d="M53.245,10.217a4.856,4.856,0,0,0-4.86-3.547H26.509a4.861,4.861,0,0,0-4.864,3.547L13.333,40.7h9.724L18.2,60.141h9.72V79.588H47.364V60.141h9.72L52.224,40.7h9.724Z" stroke="none"/>
        <path d="M 26.32621765136719 10.66605377197266 C 25.94413757324219 10.66605377197266 25.6053466796875 10.92106628417969 25.49995422363281 11.28706359863281 L 18.56999969482422 36.69692230224609 L 28.17955017089844 36.69692230224609 L 23.31954193115234 56.14065551757812 L 31.91670989990234 56.14065551757812 L 31.91670989990234 75.58802795410156 L 43.36409759521484 75.58802795410156 L 43.36409759521484 56.14065551757812 L 51.96126174926758 56.14065551757812 L 47.10123062133789 36.69692230224609 L 56.64583587646484 36.69692230224609 L 49.3925895690918 11.2935791015625 C 49.28628540039062 10.91319274902344 48.92852783203125 10.65181732177734 48.53453826904297 10.66668701171875 L 48.45977783203125 10.66948699951172 L 26.43481826782227 10.66948699951172 L 26.36029815673828 10.66670989990234 C 26.34877777099609 10.66626739501953 26.33731079101562 10.66605377197266 26.32621765136719 10.66605377197266 M 26.32621383666992 6.666061401367188 C 26.38698196411133 6.666061401367188 26.44823837280273 6.667198181152344 26.50937652587891 6.669486999511719 L 48.38494873046875 6.669486999511719 C 50.63080215454102 6.585617065429688 52.63975143432617 8.051292419433594 53.24497985839844 10.21696472167969 L 61.94780349731445 40.69692230224609 L 52.2241096496582 40.69692230224609 L 57.08413696289062 60.14065551757812 L 47.36409759521484 60.14065551757812 L 47.36409759521484 79.58802795410156 L 27.91670989990234 79.58802795410156 L 27.91670989990234 60.14065551757812 L 18.19667053222656 60.14065551757812 L 23.05668258666992 40.69692230224609 L 13.33300399780273 40.69692230224609 L 21.64570999145508 10.21696472167969 C 22.23446273803711 8.110252380371094 24.1546630859375 6.666061401367188 26.32621383666992 6.666061401367188 Z" stroke="none" fill="#000"/>
      </g>
    </g>
  </g>
</svg>
