<svg xmlns="http://www.w3.org/2000/svg" xmlns:xlink="http://www.w3.org/1999/xlink" width="100" height="100" viewBox="0 0 100 100">
  <defs>
    <clipPath id="clip-Drinking_Water">
      <rect width="100" height="100"/>
    </clipPath>
  </defs>
  <g id="Drinking_Water" data-name="Drinking Water" clip-path="url(#clip-Drinking_Water)">
    <g id="Group_6629" data-name="Group 6629" transform="translate(11 2)">
      <g id="Group_6630" data-name="Group 6630" transform="translate(0)">
        <path id="Path_1859" data-name="Path 1859" d="M40,82.167a3.9,3.9,0,0,0,2.479-1.145A3.4,3.4,0,0,0,43.5,78.542a3.566,3.566,0,0,0-1.087-2.719,3.481,3.481,0,0,0-2.777-.906A18.85,18.85,0,0,1,29.123,72.2q-5.562-3.083-7.011-11.179a3.553,3.553,0,0,0-1.269-2.175A3.608,3.608,0,0,0,18.487,58a3.493,3.493,0,0,0-2.777,1.265,3.275,3.275,0,0,0-.725,2.965q2.05,10.994,9.664,15.707A25.715,25.715,0,0,0,40,82.167m-1.33,14.5q-16.552,0-27.608-11.361T0,57.031Q0,44.949,9.61,30.754T38.667,0Q58.123,16.552,67.729,30.754t9.606,26.277q0,16.916-11.06,28.275T38.667,96.667m0-9.668q12.566,0,20.782-8.515t8.218-21.452q0-8.82-7.308-19.937T38.667,12.807Q24.291,25.982,16.979,37.094T9.668,57.031q0,12.93,8.218,21.452T38.667,87" transform="translate(0 0.001)" stroke="#fff" stroke-width="2.5"/>
      </g>
    </g>
  </g>
</svg>
