<svg xmlns="http://www.w3.org/2000/svg" xmlns:xlink="http://www.w3.org/1999/xlink" width="100" height="100" viewBox="0 0 100 100">
  <defs>
    <clipPath id="clip-path">
      <rect id="Rectangle_2603" data-name="Rectangle 2603" width="100" height="100" transform="translate(0)" fill="none"/>
    </clipPath>
    <clipPath id="clip-Natural_Light">
      <rect width="100" height="100"/>
    </clipPath>
  </defs>
  <g id="Natural_Light" data-name="Natural Light" clip-path="url(#clip-Natural_Light)">
    <g id="Group_6624" data-name="Group 6624" transform="translate(0.289 0.289)">
      <g id="Group_6536" data-name="Group 6536" transform="translate(-0.289 -0.289)" clip-path="url(#clip-path)">
        <path id="Path_1848" data-name="Path 1848" d="M50,63.638A13.584,13.584,0,0,0,63.638,50,13.584,13.584,0,0,0,50,36.365,13.584,13.584,0,0,0,36.365,50,13.584,13.584,0,0,0,50,63.638m0,9.092A22.709,22.709,0,0,1,27.273,50,22.7,22.7,0,0,1,50,27.273,22.7,22.7,0,0,1,72.73,50,22.7,22.7,0,0,1,50,72.73M4.548,54.546a4.39,4.39,0,0,1-3.239-1.309,4.661,4.661,0,0,1,0-6.477,4.4,4.4,0,0,1,3.239-1.3h9.089a4.545,4.545,0,1,1,0,9.089Zm81.819,0a4.545,4.545,0,1,1,0-9.089h9.089a4.545,4.545,0,1,1,0,9.089ZM50,18.184a4.472,4.472,0,0,1-4.544-4.548V4.548a4.4,4.4,0,0,1,1.309-3.242,4.669,4.669,0,0,1,6.477,0,4.411,4.411,0,0,1,1.3,3.242v9.089A4.461,4.461,0,0,1,50,18.184M50,100a4.472,4.472,0,0,1-4.544-4.548V86.366a4.545,4.545,0,1,1,9.089,0v9.089A4.461,4.461,0,0,1,50,100M21.136,27.5l-4.885-4.773a3.956,3.956,0,0,1-1.309-3.181,4.958,4.958,0,0,1,1.309-3.3,4.489,4.489,0,0,1,3.3-1.364,4.122,4.122,0,0,1,3.181,1.364L27.5,21.136a4.673,4.673,0,0,1,0,6.365,3.884,3.884,0,0,1-3.123,1.306A4.874,4.874,0,0,1,21.136,27.5m56.138,56.25L72.5,78.866a4.639,4.639,0,0,1-1.251-3.239A4.245,4.245,0,0,1,72.5,72.5,3.887,3.887,0,0,1,75.628,71.2,4.865,4.865,0,0,1,78.866,72.5l4.885,4.773a3.956,3.956,0,0,1,1.309,3.181,4.958,4.958,0,0,1-1.309,3.3,4.488,4.488,0,0,1-3.3,1.364,4.122,4.122,0,0,1-3.181-1.364M72.5,27.5A3.887,3.887,0,0,1,71.2,24.375,4.865,4.865,0,0,1,72.5,21.136l4.773-4.885a3.956,3.956,0,0,1,3.181-1.309,4.958,4.958,0,0,1,3.3,1.309,4.488,4.488,0,0,1,1.364,3.3,4.122,4.122,0,0,1-1.364,3.181L78.866,27.5a4.673,4.673,0,0,1-6.365,0m-56.25,56.25a4.488,4.488,0,0,1-1.364-3.3,4.122,4.122,0,0,1,1.364-3.181L21.136,72.5a4.647,4.647,0,0,1,3.242-1.251A4.243,4.243,0,0,1,27.5,72.5a3.89,3.89,0,0,1,1.309,3.126A4.885,4.885,0,0,1,27.5,78.866l-4.773,4.885a3.953,3.953,0,0,1-3.181,1.306,4.938,4.938,0,0,1-3.3-1.306" transform="translate(0.286 0)"/>
      </g>
    </g>
  </g>
</svg>
