<svg xmlns="http://www.w3.org/2000/svg" xmlns:xlink="http://www.w3.org/1999/xlink" width="100" height="100" viewBox="0 0 100 100">
  <defs>
    <clipPath id="clip-path">
      <rect id="Rectangle_2610" data-name="Rectangle 2610" width="88.679" height="100" fill="none"/>
    </clipPath>
    <clipPath id="clip-Toilet">
      <rect width="100" height="100"/>
    </clipPath>
  </defs>
  <g id="Toilet" clip-path="url(#clip-Toilet)">
    <g id="Group_6551" data-name="Group 6551" transform="translate(6)" clip-path="url(#clip-path)">
      <path id="Path_1858" data-name="Path 1858" d="M39.623,17.925a2.831,2.831,0,0,1-2.83,2.83H29.245a2.83,2.83,0,1,1,0-5.66h7.547a2.831,2.831,0,0,1,2.83,2.83M63.679,80.472l1.7,11.981a6.706,6.706,0,0,1-1.509,5.283,6.808,6.808,0,0,1-5,2.264H29.811a6.808,6.808,0,0,1-5-2.264A6.706,6.706,0,0,1,23.3,92.453L25,80.472A44.478,44.478,0,0,1,0,40.566a2.831,2.831,0,0,1,2.83-2.83h8.491V6.6a6.6,6.6,0,0,1,6.6-6.6h52.83a6.6,6.6,0,0,1,6.6,6.6V37.736h8.491a2.831,2.831,0,0,1,2.83,2.83,44.478,44.478,0,0,1-25,39.906m-46.7-42.736H71.7V6.6a.944.944,0,0,0-.943-.943H17.925a.944.944,0,0,0-.943.943ZM58.253,82.642a43.892,43.892,0,0,1-27.83,0L28.868,93.253a.959.959,0,0,0,.234.758.862.862,0,0,0,.709.328H58.868a.862.862,0,0,0,.709-.328.959.959,0,0,0,.234-.758ZM82.925,43.4H5.755a38.679,38.679,0,0,0,77.17,0"/>
    </g>
  </g>
</svg>
